0
SECTION
2
HEADER
9
$INSUNITS
70
4
9
$ACADVER
1
AC1014
9
$HANDSEED
5
FFFF
0
ENDSEC
0
SECTION
2
TABLES
0
TABLE
2
VPORT
5
8
100
AcDbSymbolTable
0
ENDTAB
0
TABLE
2
LTYPE
5
5
100
AcDbSymbolTable
0
LTYPE
5
14
100
AcDbSymbolTableRecord
100
AcDbLinetypeTableRecord
2
BYBLOCK
70
0
0
LTYPE
5
15
100
AcDbSymbolTableRecord
100
AcDbLinetypeTableRecord
2
BYLAYER
70
0
0
ENDTAB
0
TABLE
2
LAYER
5
2
100
AcDbSymbolTable
70
2
0
LAYER
5
50
100
AcDbSymbolTableRecord
100
AcDbLayerTableRecord
2
0
70
0
6
CONTINUOUS
0
ENDTAB
0
TABLE
2
STYLE
5
3
100
AcDbSymbolTable
70
1
0
STYLE
5
11
100
AcDbSymbolTableRecord
100
AcDbTextStyleTableRecord
2
STANDARD
70
0
0
ENDTAB
0
TABLE
2
VIEW
5
6
100
AcDbSymbolTable
70
0
0
ENDTAB
0
TABLE
2
UCS
5
7
100
AcDbSymbolTable
70
0
0
ENDTAB
0
TABLE
2
APPID
5
9
100
AcDbSymbolTable
70
2
0
APPID
5
12
100
AcDbSymbolTableRecord
100
AcDbRegAppTableRecord
2
ACAD
70
0
0
ENDTAB
0
TABLE
2
DIMSTYLE
5
A
100
AcDbSymbolTable
70
1
0
ENDTAB
0
TABLE
2
BLOCK_RECORD
5
1
100
AcDbSymbolTable
70
1
0
BLOCK_RECORD
5
1F
100
AcDbSymbolTableRecord
100
AcDbBlockTableRecord
2
*MODEL_SPACE
0
BLOCK_RECORD
5
1B
100
AcDbSymbolTableRecord
100
AcDbBlockTableRecord
2
*PAPER_SPACE
0
ENDTAB
0
ENDSEC
0
SECTION
2
BLOCKS
0
BLOCK
5
20
100
AcDbEntity
100
AcDbBlockBegin
2
*MODEL_SPACE
0
ENDBLK
5
21
100
AcDbEntity
100
AcDbBlockEnd
0
BLOCK
5
1C
100
AcDbEntity
100
AcDbBlockBegin
2
*PAPER_SPACE
0
ENDBLK
5
1D
100
AcDbEntity
100
AcDbBlockEnd
0
ENDSEC
0
SECTION
2
ENTITIES
0
LWPOLYLINE
5
100
100
AcDbEntity
8
0
100
AcDbPolyline
90
4
70
1
43
0.0
10
-14.999999999999979
20
14.999999999999996
10
14.999999999999993
20
14.999999999999993
10
14.999999999999993
20
-15
10
-14.999999999999979
20
-15.000000000000004
0
LINE
5
101
100
AcDbEntity
8
0
100
AcDbLine
10
-14.999999999999979
20
14.999999999999996
30
0
11
14.999999999999993
21
-15
31
0
0
LINE
5
102
100
AcDbEntity
8
0
100
AcDbLine
10
14.999999999999993
20
14.999999999999993
30
0
11
-14.999999999999979
21
-15.000000000000004
31
0
0
CIRCLE
5
103
100
AcDbEntity
8
0
100
AcDbCircle
10
0
20
0
30
0
40
3.4000000000000004
210
0
220
0
230
1
0
LINE
5
104
100
AcDbEntity
8
0
100
AcDbLine
10
0
20
14.999999999999996
30
0
11
0
21
-15
31
0
0
LINE
5
105
100
AcDbEntity
8
0
100
AcDbLine
10
-14.999999999999996
20
-4.4408920985006262e-15
30
0
11
14.999999999999996
21
0
31
0
0
LINE
5
106
100
AcDbEntity
8
0
100
AcDbLine
10
1.0547118733938987e-14
20
5.6999999999999957
30
0
11
0.51961524227067246
21
5.9999999999999956
31
0
0
LINE
5
107
100
AcDbEntity
8
0
100
AcDbLine
10
0.51961524227067246
20
5.9999999999999956
30
0
11
4.5857864376266662
21
5.9999999999997522
31
0
0
LINE
5
108
100
AcDbEntity
8
0
100
AcDbLine
10
4.5857864376266662
20
5.9999999999997522
30
0
11
8.2500000000000089
21
9.6642135623730301
31
0
0
LINE
5
109
100
AcDbEntity
8
0
100
AcDbLine
10
8.2500000000000089
20
9.6642135623730301
30
0
11
8.25
21
13.000000000000005
31
0
0
LINE
5
110
100
AcDbEntity
8
0
100
AcDbLine
10
8.25
20
13.000000000000005
30
0
11
4
21
12.999999999999998
31
0
0
LINE
5
111
100
AcDbEntity
8
0
100
AcDbLine
10
4
20
12.999999999999998
30
0
11
4
21
15.000000000000002
31
0
0
LINE
5
112
100
AcDbEntity
8
0
100
AcDbLine
10
4
20
15.000000000000002
30
0
11
13.000000000000025
21
14.999999999997405
31
0
0
LINE
5
113
100
AcDbEntity
8
0
100
AcDbLine
10
9.6642135623730372
20
8.2500000000000018
30
0
11
13.000000000000014
21
8.2499999999999982
31
0
0
LINE
5
114
100
AcDbEntity
8
0
100
AcDbLine
10
6.000000000000016
20
0.51961524227065559
30
0
11
5.9999999999997691
21
4.5857864376266493
31
0
0
LINE
5
115
100
AcDbEntity
8
0
100
AcDbLine
10
13.000000000000014
20
8.2499999999999982
30
0
11
12.999999999999993
21
4.0000000000000133
31
0
0
LINE
5
116
100
AcDbEntity
8
0
100
AcDbLine
10
12.999999999999993
20
4.0000000000000133
30
0
11
14.999999999999989
21
4.0000000000000107
31
0
0
LINE
5
117
100
AcDbEntity
8
0
100
AcDbLine
10
5.6999999999998785
20
1.3360944772568832e-13
30
0
11
6.000000000000016
21
0.51961524227065559
31
0
0
LINE
5
118
100
AcDbEntity
8
0
100
AcDbLine
10
5.9999999999997691
20
4.5857864376266493
30
0
11
9.6642135623730372
21
8.2500000000000018
31
0
0
LINE
5
119
100
AcDbEntity
8
0
100
AcDbLine
10
14.999999999999989
20
4.0000000000000107
30
0
11
15.000000000000025
21
12.999999999997405
31
0
0
ARC
5
120
100
AcDbEntity
8
0
100
AcDbCircle
10
13.000000000000025
20
12.999999999997405
30
0
40
1.9999999999999996
210
-0
220
0
230
1
100
AcDbArc
50
0
51
90
0
LINE
5
121
100
AcDbEntity
8
0
100
AcDbLine
10
-13.000000000000011
20
8.2499999999999982
30
0
11
-12.999999999999993
21
4.0000000000000107
31
0
0
LINE
5
122
100
AcDbEntity
8
0
100
AcDbLine
10
-9.6642135623748366
20
8.2500000000000018
30
0
11
-13.000000000000011
21
8.2499999999999982
31
0
0
LINE
5
123
100
AcDbEntity
8
0
100
AcDbLine
10
-14.999999999999991
20
4.0000000000000098
30
0
11
-14.999999999999996
21
12.999999999997405
31
0
0
LINE
5
124
100
AcDbEntity
8
0
100
AcDbLine
10
-5.9999999999999982
20
0.51961524227065559
30
0
11
-6.000000000000103
21
4.5857864376266493
31
0
0
LINE
5
125
100
AcDbEntity
8
0
100
AcDbLine
10
-5.6999999999998607
20
1.3382778640256436e-13
30
0
11
-5.9999999999999982
21
0.51961524227065559
31
0
0
LINE
5
126
100
AcDbEntity
8
0
100
AcDbLine
10
-4
20
15.000000000000002
30
0
11
-13.000000000000007
21
14.999999999997405
31
0
0
LINE
5
127
100
AcDbEntity
8
0
100
AcDbLine
10
-8.25
20
13.000000000000004
30
0
11
-4
21
13
31
0
0
ARC
5
128
100
AcDbEntity
8
0
100
AcDbCircle
10
-12.999999999999996
20
12.999999999997405
30
0
40
1.9999999999999996
210
0
220
0
230
1
100
AcDbArc
50
90.000000000000313
51
180
0
LINE
5
129
100
AcDbEntity
8
0
100
AcDbLine
10
-4.585786437627263
20
5.9999999999996074
30
0
11
-8.2500000000000071
21
9.6642135623730301
31
0
0
LINE
5
130
100
AcDbEntity
8
0
100
AcDbLine
10
8.8817841970012523e-15
20
5.6999999999999957
30
0
11
-0.5196152422706547
21
5.9999999999999956
31
0
0
LINE
5
131
100
AcDbEntity
8
0
100
AcDbLine
10
-0.5196152422706547
20
5.9999999999999956
30
0
11
-4.585786437627263
21
5.9999999999996074
31
0
0
LINE
5
132
100
AcDbEntity
8
0
100
AcDbLine
10
-8.2500000000000071
20
9.6642135623730301
30
0
11
-8.25
21
13.000000000000004
31
0
0
LINE
5
133
100
AcDbEntity
8
0
100
AcDbLine
10
-6.000000000000103
20
4.5857864376266493
30
0
11
-9.6642135623748366
21
8.2500000000000018
31
0
0
LINE
5
134
100
AcDbEntity
8
0
100
AcDbLine
10
-12.999999999999993
20
4.0000000000000107
30
0
11
-14.999999999999991
21
4.0000000000000098
31
0
0
LINE
5
135
100
AcDbEntity
8
0
100
AcDbLine
10
-4
20
13
30
0
11
-4
21
15.000000000000002
31
0
0
LINE
5
136
100
AcDbEntity
8
0
100
AcDbLine
10
-14.999999999999991
20
-4.0000000000000178
30
0
11
-14.999999999999998
21
-12.999999999997414
31
0
0
LINE
5
137
100
AcDbEntity
8
0
100
AcDbLine
10
4.0000000000000036
20
-13.000000000000004
30
0
11
4.0000000000000044
21
-15.000000000000007
31
0
0
LINE
5
138
100
AcDbEntity
8
0
100
AcDbLine
10
8.2500000000000053
20
-13.000000000000005
30
0
11
4.0000000000000036
21
-13.000000000000004
31
0
0
LINE
5
139
100
AcDbEntity
8
0
100
AcDbLine
10
-0.51961524227065248
20
-6
30
0
11
-4.5857864376272612
21
-5.9999999999996145
31
0
0
LINE
5
140
100
AcDbEntity
8
0
100
AcDbLine
10
-13.000000000000011
20
-8.2500000000000071
30
0
11
-12.999999999999993
21
-4.0000000000000195
31
0
0
LINE
5
141
100
AcDbEntity
8
0
100
AcDbLine
10
4.5857864376266688
20
-5.9999999999997549
30
0
11
8.2500000000000107
21
-9.6642135623730301
31
0
0
ARC
5
142
100
AcDbEntity
8
0
100
AcDbCircle
10
-12.999999999999998
20
-12.999999999997414
30
0
40
1.9999999999999996
210
0
220
0
230
1
100
AcDbArc
50
180
51
269.99999999999983
0
LINE
5
143
100
AcDbEntity
8
0
100
AcDbLine
10
6.000000000000016
20
-0.51961524227065736
30
0
11
5.9999999999997708
21
-4.5857864376266519
31
0
0
LINE
5
144
100
AcDbEntity
8
0
100
AcDbLine
10
-8.2499999999999947
20
-13.000000000000011
30
0
11
-3.9999999999999938
21
-13.000000000000004
31
0
0
LINE
5
145
100
AcDbEntity
8
0
100
AcDbLine
10
-5.9999999999999982
20
-0.51961524227066258
30
0
11
-6.0000000000001226
21
-4.5857864376266564
31
0
0
LINE
5
146
100
AcDbEntity
8
0
100
AcDbLine
10
13.000000000000011
20
-8.2499999999999982
30
0
11
12.999999999999993
21
-4.0000000000000124
31
0
0
LINE
5
147
100
AcDbEntity
8
0
100
AcDbLine
10
12.999999999999993
20
-4.0000000000000124
30
0
11
14.999999999999991
21
-4.0000000000000107
31
0
0
ARC
5
148
100
AcDbEntity
8
0
100
AcDbCircle
10
13.000000000000028
20
-12.999999999997405
30
0
40
1.9999999999999996
210
0
220
0
230
1
100
AcDbArc
50
-90
51
0
0
LINE
5
149
100
AcDbEntity
8
0
100
AcDbLine
10
-3.9999999999999938
20
-13.000000000000004
30
0
11
-3.9999999999999938
21
-15.000000000000007
31
0
0
LINE
5
150
100
AcDbEntity
8
0
100
AcDbLine
10
0.51961524227067468
20
-6
30
0
11
4.5857864376266688
21
-5.9999999999997549
31
0
0
LINE
5
151
100
AcDbEntity
8
0
100
AcDbLine
10
-3.9999999999999938
20
-15.000000000000007
30
0
11
-13.000000000000004
21
-14.999999999997414
31
0
0
LINE
5
152
100
AcDbEntity
8
0
100
AcDbLine
10
5.9999999999997708
20
-4.5857864376266519
30
0
11
9.6642135623730425
21
-8.2500000000000036
31
0
0
LINE
5
153
100
AcDbEntity
8
0
100
AcDbLine
10
-9.6642135623748331
20
-8.2500000000000089
30
0
11
-13.000000000000011
21
-8.2500000000000071
31
0
0
LINE
5
154
100
AcDbEntity
8
0
100
AcDbLine
10
9.6642135623730425
20
-8.2500000000000036
30
0
11
13.000000000000011
21
-8.2499999999999982
31
0
0
LINE
5
155
100
AcDbEntity
8
0
100
AcDbLine
10
-8.2500000000000036
20
-9.664213562373039
30
0
11
-8.2499999999999947
21
-13.000000000000011
31
0
0
LINE
5
156
100
AcDbEntity
8
0
100
AcDbLine
10
-5.6999999999998598
20
-1.4079877389734137e-13
30
0
11
-5.9999999999999982
21
-0.51961524227066258
31
0
0
LINE
5
157
100
AcDbEntity
8
0
100
AcDbLine
10
-4.5857864376272612
20
-5.9999999999996145
30
0
11
-8.2500000000000036
21
-9.664213562373039
31
0
0
LINE
5
158
100
AcDbEntity
8
0
100
AcDbLine
10
14.999999999999991
20
-4.0000000000000107
30
0
11
15.000000000000028
21
-12.999999999997405
31
0
0
LINE
5
159
100
AcDbEntity
8
0
100
AcDbLine
10
-12.999999999999993
20
-4.0000000000000195
30
0
11
-14.999999999999991
21
-4.0000000000000178
31
0
0
LINE
5
160
100
AcDbEntity
8
0
100
AcDbLine
10
-6.0000000000001226
20
-4.5857864376266564
30
0
11
-9.6642135623748331
21
-8.2500000000000089
31
0
0
LINE
5
161
100
AcDbEntity
8
0
100
AcDbLine
10
1.1457501614131616e-14
20
-5.7000000000000011
30
0
11
-0.51961524227065248
21
-6
31
0
0
LINE
5
162
100
AcDbEntity
8
0
100
AcDbLine
10
5.6999999999998785
20
-1.3568632643359008e-13
30
0
11
6.000000000000016
21
-0.51961524227065736
31
0
0
LINE
5
163
100
AcDbEntity
8
0
100
AcDbLine
10
8.2500000000000107
20
-9.6642135623730301
30
0
11
8.2500000000000053
21
-13.000000000000005
31
0
0
LINE
5
164
100
AcDbEntity
8
0
100
AcDbLine
10
4.0000000000000044
20
-15.000000000000007
30
0
11
13.000000000000028
21
-14.999999999997405
31
0
0
LINE
5
165
100
AcDbEntity
8
0
100
AcDbLine
10
1.1013412404281553e-14
20
-5.7000000000000011
30
0
11
0.51961524227067468
21
-6
31
0
0
CIRCLE
5
166
100
AcDbEntity
8
0
100
AcDbCircle
10
-11.599999999999977
20
11.599999999999993
30
0
40
2.0999999999999992
210
0
220
0
230
1
0
CIRCLE
5
167
100
AcDbEntity
8
0
100
AcDbCircle
10
-11.599999999999993
20
-11.599999999999982
30
0
40
2.0999999999999992
210
0
220
0
230
1
0
CIRCLE
5
168
100
AcDbEntity
8
0
100
AcDbCircle
10
11.599999999999975
20
-11.599999999999994
30
0
40
2.0999999999999992
210
0
220
0
230
1
0
CIRCLE
5
169
100
AcDbEntity
8
0
100
AcDbCircle
10
11.599999999999994
20
11.599999999999975
30
0
40
2.0999999999999992
210
0
220
0
230
1
0
ENDSEC
0
SECTION
2
OBJECTS
0
DICTIONARY
5
C
100
AcDbDictionary
3
ACAD_GROUP
350
D
3
ACAD_MLINESTYLE
350
17
0
DICTIONARY
5
D
100
AcDbDictionary
0
DICTIONARY
5
1A
330
C
100
AcDbDictionary
0
DICTIONARY
5
17
100
AcDbDictionary
0
ENDSEC
0
EOF
