0
SECTION
2
HEADER
9
$INSUNITS
70
4
9
$ACADVER
1
AC1014
9
$HANDSEED
5
FFFF
0
ENDSEC
0
SECTION
2
TABLES
0
TABLE
2
VPORT
5
8
100
AcDbSymbolTable
0
ENDTAB
0
TABLE
2
LTYPE
5
5
100
AcDbSymbolTable
0
LTYPE
5
14
100
AcDbSymbolTableRecord
100
AcDbLinetypeTableRecord
2
BYBLOCK
70
0
0
LTYPE
5
15
100
AcDbSymbolTableRecord
100
AcDbLinetypeTableRecord
2
BYLAYER
70
0
0
ENDTAB
0
TABLE
2
LAYER
5
2
100
AcDbSymbolTable
70
2
0
LAYER
5
50
100
AcDbSymbolTableRecord
100
AcDbLayerTableRecord
2
0
70
0
6
CONTINUOUS
0
ENDTAB
0
TABLE
2
STYLE
5
3
100
AcDbSymbolTable
70
1
0
STYLE
5
11
100
AcDbSymbolTableRecord
100
AcDbTextStyleTableRecord
2
STANDARD
70
0
0
ENDTAB
0
TABLE
2
VIEW
5
6
100
AcDbSymbolTable
70
0
0
ENDTAB
0
TABLE
2
UCS
5
7
100
AcDbSymbolTable
70
0
0
ENDTAB
0
TABLE
2
APPID
5
9
100
AcDbSymbolTable
70
2
0
APPID
5
12
100
AcDbSymbolTableRecord
100
AcDbRegAppTableRecord
2
ACAD
70
0
0
ENDTAB
0
TABLE
2
DIMSTYLE
5
A
100
AcDbSymbolTable
70
1
0
ENDTAB
0
TABLE
2
BLOCK_RECORD
5
1
100
AcDbSymbolTable
70
1
0
BLOCK_RECORD
5
1F
100
AcDbSymbolTableRecord
100
AcDbBlockTableRecord
2
*MODEL_SPACE
0
BLOCK_RECORD
5
1B
100
AcDbSymbolTableRecord
100
AcDbBlockTableRecord
2
*PAPER_SPACE
0
ENDTAB
0
ENDSEC
0
SECTION
2
BLOCKS
0
BLOCK
5
20
100
AcDbEntity
100
AcDbBlockBegin
2
*MODEL_SPACE
0
ENDBLK
5
21
100
AcDbEntity
100
AcDbBlockEnd
0
BLOCK
5
1C
100
AcDbEntity
100
AcDbBlockBegin
2
*PAPER_SPACE
0
ENDBLK
5
1D
100
AcDbEntity
100
AcDbBlockEnd
0
ENDSEC
0
SECTION
2
ENTITIES
0
CIRCLE
5
100
100
AcDbEntity
8
0
100
AcDbCircle
10
0
20
0
30
0
40
3.4000000000000008
210
0
220
0
230
1
0
LINE
5
101
100
AcDbEntity
8
0
100
AcDbLine
10
0
20
3.4000000000000008
30
0
11
0
21
0
31
0
0
LINE
5
102
100
AcDbEntity
8
0
100
AcDbLine
10
0
20
0
30
0
11
3.4000000000000008
21
0
31
0
0
LWPOLYLINE
5
103
100
AcDbEntity
8
0
100
AcDbPolyline
90
4
70
1
43
0.0
10
6
20
6.0000000000000018
10
-6
20
6.0000000000000018
10
-6
20
-6.0000000000000018
10
6
20
-6.0000000000000018
0
LINE
5
104
100
AcDbEntity
8
0
100
AcDbLine
10
6
20
6.0000000000000018
30
0
11
-6
21
-6.0000000000000018
31
0
0
LINE
5
105
100
AcDbEntity
8
0
100
AcDbLine
10
-6
20
6.0000000000000018
30
0
11
6
21
-6.0000000000000018
31
0
0
LWPOLYLINE
5
106
100
AcDbEntity
8
0
100
AcDbPolyline
90
4
70
1
43
0.0
10
-15
20
15
10
15
20
15
10
15
20
-15
10
-15
20
-15
0
LINE
5
107
100
AcDbEntity
8
0
100
AcDbLine
10
-15
20
15
30
0
11
15
21
-15
31
0
0
LINE
5
108
100
AcDbEntity
8
0
100
AcDbLine
10
15
20
15
30
0
11
-15
21
-15
31
0
0
LINE
5
109
100
AcDbEntity
8
0
100
AcDbLine
10
1.1102230246251565e-15
20
5.7000000000000037
30
0
11
0.51961524227066236
21
6.0000000000000036
31
0
0
LINE
5
110
100
AcDbEntity
8
0
100
AcDbLine
10
1.1102230246251565e-15
20
5.7000000000000037
30
0
11
0.59439750121747059
21
5.7000000000000028
31
0
0
LINE
5
111
100
AcDbEntity
8
0
100
AcDbLine
10
0.51961524227066236
20
6.0000000000000036
30
0
11
4.585786437626906
21
6.0000000000000018
31
0
0
LINE
5
112
100
AcDbEntity
8
0
100
AcDbLine
10
4.585786437626906
20
6.0000000000000018
30
0
11
8.25
21
9.6642135623730923
31
0
0
LINE
5
113
100
AcDbEntity
8
0
100
AcDbLine
10
8.25
20
9.6642135623730923
30
0
11
8.25
21
13
31
0
0
LINE
5
114
100
AcDbEntity
8
0
100
AcDbLine
10
8.25
20
13
30
0
11
4
21
13
31
0
0
LINE
5
115
100
AcDbEntity
8
0
100
AcDbLine
10
4
20
13
30
0
11
4
21
15
31
0
0
LINE
5
116
100
AcDbEntity
8
0
100
AcDbLine
10
-4
20
13
30
0
11
-4
21
15
31
0
0
LINE
5
117
100
AcDbEntity
8
0
100
AcDbLine
10
-8.25
20
9.6642135623730923
30
0
11
-8.25
21
13
31
0
0
LINE
5
118
100
AcDbEntity
8
0
100
AcDbLine
10
-0.51961524227066314
20
6.0000000000000036
30
0
11
-4.585786437626906
21
6.0000000000000018
31
0
0
LINE
5
119
100
AcDbEntity
8
0
100
AcDbLine
10
0
20
5.7000000000000028
30
0
11
-0.51961524227066314
21
6.0000000000000036
31
0
0
LINE
5
120
100
AcDbEntity
8
0
100
AcDbLine
10
-4.585786437626906
20
6.0000000000000018
30
0
11
-8.25
21
9.6642135623730923
31
0
0
LINE
5
121
100
AcDbEntity
8
0
100
AcDbLine
10
0
20
5.7000000000000028
30
0
11
-0.59439750121747059
21
5.7000000000000028
31
0
0
LINE
5
122
100
AcDbEntity
8
0
100
AcDbLine
10
-8.25
20
13
30
0
11
-4
21
13
31
0
0
LINE
5
123
100
AcDbEntity
8
0
100
AcDbLine
10
-6.0000000000000053
20
0.51961524227065903
30
0
11
-6.0000000000000036
21
4.585786437626906
31
0
0
LINE
5
124
100
AcDbEntity
8
0
100
AcDbLine
10
-13.000000000000004
20
3.9999999999999969
30
0
11
-15.000000000000002
21
3.9999999999999969
31
0
0
LINE
5
125
100
AcDbEntity
8
0
100
AcDbLine
10
-5.7000000000000064
20
-4.3284351837051833e-15
30
0
11
-6.0000000000000053
21
0.51961524227065903
31
0
0
LINE
5
126
100
AcDbEntity
8
0
100
AcDbLine
10
-13
20
8.25
30
0
11
-13.000000000000004
21
3.9999999999999969
31
0
0
LINE
5
127
100
AcDbEntity
8
0
100
AcDbLine
10
-6.0000000000000036
20
4.585786437626906
30
0
11
-9.6642135623730923
21
8.25
31
0
0
LINE
5
128
100
AcDbEntity
8
0
100
AcDbLine
10
-9.6642135623730923
20
8.25
30
0
11
-13
21
8.25
31
0
0
LINE
5
129
100
AcDbEntity
8
0
100
AcDbLine
10
-6.0000000000000036
20
-0.51961524227065836
30
0
11
-6.0000000000000036
21
-4.585786437626906
31
0
0
LINE
5
130
100
AcDbEntity
8
0
100
AcDbLine
10
-5.7000000000000064
20
5.0264838592191757e-15
30
0
11
-6.0000000000000036
21
-0.51961524227065836
31
0
0
LINE
5
131
100
AcDbEntity
8
0
100
AcDbLine
10
-6.0000000000000036
20
-4.585786437626906
30
0
11
-9.6642135623730923
21
-8.25
31
0
0
LINE
5
132
100
AcDbEntity
8
0
100
AcDbLine
10
-9.6642135623730923
20
-8.25
30
0
11
-13
21
-8.25
31
0
0
LINE
5
133
100
AcDbEntity
8
0
100
AcDbLine
10
-13
20
-8.25
30
0
11
-13.000000000000004
21
-3.9999999999999969
31
0
0
LINE
5
134
100
AcDbEntity
8
0
100
AcDbLine
10
-13.000000000000004
20
-3.9999999999999969
30
0
11
-15.000000000000002
21
-3.9999999999999969
31
0
0
LINE
5
135
100
AcDbEntity
8
0
100
AcDbLine
10
-15.000000000000002
20
-3.9999999999999969
30
0
11
-15
21
-15
31
0
0
LINE
5
136
100
AcDbEntity
8
0
100
AcDbLine
10
9.6642135623730887
20
8.2500000000000036
30
0
11
12.999999999999998
21
8.2500000000000071
31
0
0
LINE
5
137
100
AcDbEntity
8
0
100
AcDbLine
10
12.999999999999998
20
8.2500000000000071
30
0
11
12.999999999999998
21
4.0000000000000053
31
0
0
LINE
5
138
100
AcDbEntity
8
0
100
AcDbLine
10
12.999999999999998
20
4.0000000000000053
30
0
11
15
21
4.0000000000000053
31
0
0
LINE
5
139
100
AcDbEntity
8
0
100
AcDbLine
10
6.0000000000000036
20
0.51961524227066458
30
0
11
6.0000000000000009
21
4.5857864376269077
31
0
0
LINE
5
140
100
AcDbEntity
8
0
100
AcDbLine
10
5.7000000000000037
20
3.3306690738754696e-15
30
0
11
6.0000000000000036
21
0.51961524227066458
31
0
0
LINE
5
141
100
AcDbEntity
8
0
100
AcDbLine
10
6.0000000000000009
20
4.5857864376269077
30
0
11
9.6642135623730887
21
8.2500000000000036
31
0
0
LINE
5
142
100
AcDbEntity
8
0
100
AcDbLine
10
6.0000000000000036
20
-0.51961524227066458
30
0
11
6.0000000000000009
21
-4.5857864376269077
31
0
0
LINE
5
143
100
AcDbEntity
8
0
100
AcDbLine
10
6.0000000000000009
20
-4.5857864376269077
30
0
11
9.6642135623730887
21
-8.2500000000000036
31
0
0
LINE
5
144
100
AcDbEntity
8
0
100
AcDbLine
10
9.6642135623730887
20
-8.2500000000000036
30
0
11
12.999999999999998
21
-8.2500000000000071
31
0
0
LINE
5
145
100
AcDbEntity
8
0
100
AcDbLine
10
12.999999999999998
20
-8.2500000000000071
30
0
11
12.999999999999998
21
-4.0000000000000053
31
0
0
LINE
5
146
100
AcDbEntity
8
0
100
AcDbLine
10
12.999999999999998
20
-4.0000000000000053
30
0
11
15
21
-4.0000000000000053
31
0
0
LINE
5
147
100
AcDbEntity
8
0
100
AcDbLine
10
5.7000000000000037
20
-3.3306690738754696e-15
30
0
11
6.0000000000000036
21
-0.51961524227066458
31
0
0
LWPOLYLINE
5
148
100
AcDbEntity
8
0
100
AcDbPolyline
90
9
70
1
43
0.0
10
4.585786437626906
20
-6.0000000000000018
10
8.8357864376269095
20
-10.250000000000004
10
12.999999999999998
20
-10.250000000000004
10
12.999999999999996
20
-15.939339828220181
10
-5.3222160495872659
20
-34.261555877807417
42
-0.19195931297942953
10
-12.999999999999996
20
-15
10
-12.999999999999996
20
-10.250000000000002
10
-8.8357864376269042
20
-10.250000000000002
10
-4.585786437626906
20
-6.0000000000000018
0
ARC
5
149
100
AcDbEntity
8
0
100
AcDbCircle
10
14.999999999999991
20
-15.000000000000002
30
0
40
29.999999999999993
210
0
220
0
230
1
100
AcDbArc
50
180
51
270
0
LINE
5
150
100
AcDbEntity
8
0
100
AcDbLine
10
15
20
-15
30
0
11
-6.2132034355964292
21
-36.213203435596419
31
0
0
ARC
5
151
100
AcDbEntity
8
0
100
AcDbCircle
10
-12.999999999999982
20
12.999999999999986
30
0
40
2.0000000000000173
210
0
220
0
230
1
100
AcDbArc
50
90.000000000000099
51
180
0
ARC
5
152
100
AcDbEntity
8
0
100
AcDbCircle
10
13
20
13
30
0
40
1.9999999999999996
210
0
220
-0
230
1
100
AcDbArc
50
0
51
90
0
CIRCLE
5
153
100
AcDbEntity
8
0
100
AcDbCircle
10
-11.600000000000003
20
11.6
30
0
40
2.1000000000000001
210
0
220
0
230
1
0
CIRCLE
5
154
100
AcDbEntity
8
0
100
AcDbCircle
10
11.6
20
11.6
30
0
40
2.0999999999999996
210
0
220
0
230
1
0
ARC
5
155
100
AcDbEntity
8
0
100
AcDbCircle
10
15.299999999999994
20
-14.699999999999996
30
0
40
0.30000000000000027
210
0
220
0
230
1
100
AcDbArc
50
180
51
270.00003754173571
0
LINE
5
156
100
AcDbEntity
8
0
100
AcDbLine
10
13
20
15
30
0
11
4
21
15
31
0
0
LINE
5
157
100
AcDbEntity
8
0
100
AcDbLine
10
15
20
13.000000000000004
30
0
11
15
21
4.0000000000000053
31
0
0
LINE
5
158
100
AcDbEntity
8
0
100
AcDbLine
10
-12.999999999999986
20
15.000000000000002
30
0
11
-4
21
15
31
0
0
LINE
5
159
100
AcDbEntity
8
0
100
AcDbLine
10
-15
20
12.999999999999986
30
0
11
-15.000000000000002
21
3.9999999999999969
31
0
0
LINE
5
160
100
AcDbEntity
8
0
100
AcDbLine
10
29.999999999999993
20
-24.300000000000004
30
0
11
29.480384757729325
21
-24.000000000000004
31
0
0
LINE
5
161
100
AcDbEntity
8
0
100
AcDbLine
10
35.699999999999989
20
-30.000000000000004
30
0
11
35.699999999999996
21
-29.405602498782535
31
0
0
LINE
5
162
100
AcDbEntity
8
0
100
AcDbLine
10
29.999999999999982
20
-35.70000000000001
30
0
11
30.519615242270653
21
-36.000000000000014
31
0
0
LWPOLYLINE
5
163
100
AcDbEntity
8
0
100
AcDbPolyline
90
9
70
1
43
0.0
10
-4.2615558778074325
20
-35.322216049587254
42
0.19195931297942959
10
14.999999999999986
20
-43
10
19.749999999999986
20
-43
10
19.749999999999993
20
-38.835786437626908
10
23.999999999999986
20
-34.585786437626908
10
23.999999999999993
20
-25.414213562373099
10
19.749999999999993
20
-21.164213562373092
10
19.749999999999996
20
-17.000000000000004
10
14.060660171779819
20
-17.000000000000004
0
LINE
5
164
100
AcDbEntity
8
0
100
AcDbLine
10
25.414213562373085
20
-24.000000000000004
30
0
11
21.749999999999993
21
-20.335786437626915
31
0
0
ARC
5
165
100
AcDbEntity
8
0
100
AcDbCircle
10
15.300000000000004
20
-14.700000000000006
30
0
40
0.30000000000007576
210
0
220
0
230
1
100
AcDbArc
50
179.99996246307677
51
270
0
LINE
5
166
100
AcDbEntity
8
0
100
AcDbLine
10
39.664213562373092
20
-21.750000000000011
30
0
11
42.999999999999986
21
-21.750000000000011
31
0
0
LINE
5
167
100
AcDbEntity
8
0
100
AcDbLine
10
34.585786437626901
20
-24.000000000000004
30
0
11
38.25
21
-20.335786437626918
31
0
0
CIRCLE
5
168
100
AcDbEntity
8
0
100
AcDbCircle
10
41.599999999999994
20
-41.600000000000009
30
0
40
2.1000000000000001
210
0
220
0
230
1
0
LINE
5
169
100
AcDbEntity
8
0
100
AcDbLine
10
44.999999999999993
20
-17.000000000000007
30
0
11
44.999999999999986
21
-26.000000000000014
31
0
0
LINE
5
170
100
AcDbEntity
8
0
100
AcDbLine
10
30.519615242270653
20
-36.000000000000014
30
0
11
34.585786437626894
21
-36.000000000000014
31
0
0
LINE
5
171
100
AcDbEntity
8
0
100
AcDbLine
10
36
20
-34.585786437626915
30
0
11
39.664213562373085
21
-38.250000000000021
31
0
0
LINE
5
172
100
AcDbEntity
8
0
100
AcDbLine
10
42.999999999999986
20
-21.750000000000011
30
0
11
42.999999999999986
21
-26.000000000000014
31
0
0
LINE
5
173
100
AcDbEntity
8
0
100
AcDbLine
10
36
20
-29.480384757729347
30
0
11
36
21
-25.414213562373099
31
0
0
LINE
5
174
100
AcDbEntity
8
0
100
AcDbLine
10
42.999999999999972
20
-45.000000000000014
30
0
11
33.999999999999979
21
-45.000000000000007
31
0
0
LINE
5
175
100
AcDbEntity
8
0
100
AcDbLine
10
21.749999999999989
20
-43
30
0
11
25.999999999999986
21
-43.000000000000007
31
0
0
LINE
5
176
100
AcDbEntity
8
0
100
AcDbLine
10
35.699999999999989
20
-30.000000000000004
30
0
11
36
21
-30.519615242270671
31
0
0
ARC
5
177
100
AcDbEntity
8
0
100
AcDbCircle
10
42.999999999999972
20
-42.999999999999986
30
0
40
2.0000000000000284
210
0
220
0
230
1
100
AcDbArc
50
270
51
360
0
LWPOLYLINE
5
178
100
AcDbEntity
8
0
100
AcDbPolyline
90
4
70
1
43
0.0
10
36
20
-24.000000000000007
10
35.999999999999993
20
-36.000000000000007
10
23.999999999999989
20
-24.000000000000004
10
23.999999999999989
20
-36.000000000000007
0
LINE
5
179
100
AcDbEntity
8
0
100
AcDbLine
10
25.999999999999993
20
-17.000000000000007
30
0
11
25.999999999999996
21
-15.000000000000004
31
0
0
LINE
5
180
100
AcDbEntity
8
0
100
AcDbLine
10
45
20
-15.000000000000009
30
0
11
14.999999999999982
21
-45
31
0
0
LWPOLYLINE
5
181
100
AcDbEntity
8
0
100
AcDbPolyline
90
3
70
1
43
0.0
10
44.999999999999986
20
-45.000000000000007
10
15
20
-15
10
45
20
-15.000000000000009
0
LINE
5
182
100
AcDbEntity
8
0
100
AcDbLine
10
15
20
-15
30
0
11
14.999999999999982
21
-45
31
0
0
LINE
5
183
100
AcDbEntity
8
0
100
AcDbLine
10
36
20
-30.519615242270671
30
0
11
36
21
-34.585786437626915
31
0
0
LINE
5
184
100
AcDbEntity
8
0
100
AcDbLine
10
30
20
-24.300000000000001
30
0
11
30.519615242270667
21
-24.000000000000004
31
0
0
LINE
5
185
100
AcDbEntity
8
0
100
AcDbLine
10
29.999999999999993
20
-30.000000000000004
30
0
11
29.999999999999993
21
-26.600000000000005
31
0
0
LINE
5
186
100
AcDbEntity
8
0
100
AcDbLine
10
36
20
-25.414213562373099
30
0
11
39.664213562373092
21
-21.750000000000011
31
0
0
LINE
5
187
100
AcDbEntity
8
0
100
AcDbLine
10
43.000000000000007
20
-15.000000000000014
30
0
11
34
21
-15.000000000000009
31
0
0
LINE
5
188
100
AcDbEntity
8
0
100
AcDbLine
10
42.999999999999986
20
-26.000000000000014
30
0
11
44.999999999999986
21
-26.000000000000014
31
0
0
LINE
5
189
100
AcDbEntity
8
0
100
AcDbLine
10
38.250000000000007
20
-17.000000000000011
30
0
11
34
21
-17.000000000000014
31
0
0
LINE
5
190
100
AcDbEntity
8
0
100
AcDbLine
10
33.999999999999979
20
-43.000000000000007
30
0
11
33.999999999999979
21
-45.000000000000007
31
0
0
LINE
5
191
100
AcDbEntity
8
0
100
AcDbLine
10
35.699999999999989
20
-30.000000000000004
30
0
11
36
21
-29.480384757729347
31
0
0
LINE
5
192
100
AcDbEntity
8
0
100
AcDbLine
10
25.999999999999986
20
-43.000000000000007
30
0
11
25.999999999999986
21
-45
31
0
0
LINE
5
193
100
AcDbEntity
8
0
100
AcDbLine
10
21.749999999999986
20
-39.664213562373092
30
0
11
21.749999999999989
21
-43
31
0
0
LINE
5
194
100
AcDbEntity
8
0
100
AcDbLine
10
38.249999999999993
20
-43.000000000000007
30
0
11
33.999999999999979
21
-43.000000000000007
31
0
0
LINE
5
195
100
AcDbEntity
8
0
100
AcDbLine
10
39.664213562373085
20
-38.250000000000021
30
0
11
42.999999999999986
21
-38.250000000000014
31
0
0
CIRCLE
5
196
100
AcDbEntity
8
0
100
AcDbCircle
10
41.600000000000001
20
-18.400000000000016
30
0
40
2.0999999999999996
210
0
220
0
230
1
0
ARC
5
197
100
AcDbEntity
8
0
100
AcDbCircle
10
43
20
-17.000000000000011
30
0
40
1.9999999999999929
210
0
220
-0
230
1
100
AcDbArc
50
0
51
89.999999999999801
0
LINE
5
198
100
AcDbEntity
8
0
100
AcDbLine
10
29.999999999999996
20
-35.700000000000017
30
0
11
29.480384757729329
21
-36.000000000000014
31
0
0
LINE
5
199
100
AcDbEntity
8
0
100
AcDbLine
10
29.480384757729329
20
-36.000000000000014
30
0
11
25.414213562373082
21
-36.000000000000007
31
0
0
LINE
5
200
100
AcDbEntity
8
0
100
AcDbLine
10
34.585786437626894
20
-36.000000000000014
30
0
11
38.249999999999993
21
-39.664213562373114
31
0
0
LINE
5
201
100
AcDbEntity
8
0
100
AcDbLine
10
42.999999999999986
20
-38.250000000000014
30
0
11
42.999999999999986
21
-34
31
0
0
LINE
5
202
100
AcDbEntity
8
0
100
AcDbLine
10
25.999999999999986
20
-45
30
0
11
14.999999999999982
21
-45
31
0
0
LINE
5
203
100
AcDbEntity
8
0
100
AcDbLine
10
29.480384757729325
20
-24.000000000000004
30
0
11
25.414213562373085
21
-24.000000000000004
31
0
0
LINE
5
204
100
AcDbEntity
8
0
100
AcDbLine
10
30.519615242270667
20
-24.000000000000004
30
0
11
34.585786437626901
21
-24.000000000000004
31
0
0
LINE
5
205
100
AcDbEntity
8
0
100
AcDbLine
10
21.749999999999993
20
-20.335786437626915
30
0
11
21.749999999999993
21
-17.000000000000007
31
0
0
LINE
5
206
100
AcDbEntity
8
0
100
AcDbLine
10
35.999999999999993
20
-36.000000000000007
30
0
11
23.999999999999989
21
-36.000000000000007
31
0
0
LINE
5
207
100
AcDbEntity
8
0
100
AcDbLine
10
23.999999999999989
20
-24.000000000000004
30
0
11
36
21
-24.000000000000007
31
0
0
LINE
5
208
100
AcDbEntity
8
0
100
AcDbLine
10
33.399999999999991
20
-30.000000000000007
30
0
11
29.999999999999993
21
-30.000000000000004
31
0
0
LINE
5
209
100
AcDbEntity
8
0
100
AcDbLine
10
14.999999999999982
20
-45
30
0
11
44.999999999999986
21
-45.000000000000007
31
0
0
LINE
5
210
100
AcDbEntity
8
0
100
AcDbLine
10
25.414213562373082
20
-36.000000000000007
30
0
11
21.749999999999986
21
-39.664213562373092
31
0
0
LINE
5
211
100
AcDbEntity
8
0
100
AcDbLine
10
34
20
-17.000000000000014
30
0
11
34
21
-15.000000000000009
31
0
0
LINE
5
212
100
AcDbEntity
8
0
100
AcDbLine
10
44.999999999999986
20
-43
30
0
11
44.999999999999986
21
-34.000000000000014
31
0
0
LINE
5
213
100
AcDbEntity
8
0
100
AcDbLine
10
42.999999999999986
20
-34
30
0
11
44.999999999999986
21
-34.000000000000014
31
0
0
LINE
5
214
100
AcDbEntity
8
0
100
AcDbLine
10
35.699999999999989
20
-30.000000000000004
30
0
11
35.699999999999996
21
-30.594397501217475
31
0
0
LINE
5
215
100
AcDbEntity
8
0
100
AcDbLine
10
21.749999999999993
20
-17.000000000000007
30
0
11
25.999999999999993
21
-17.000000000000007
31
0
0
LINE
5
216
100
AcDbEntity
8
0
100
AcDbLine
10
38.25
20
-20.335786437626918
30
0
11
38.250000000000007
21
-17.000000000000011
31
0
0
LINE
5
217
100
AcDbEntity
8
0
100
AcDbLine
10
38.249999999999993
20
-39.664213562373114
30
0
11
38.249999999999993
21
-43.000000000000007
31
0
0
CIRCLE
5
218
100
AcDbEntity
8
0
100
AcDbCircle
10
29.999999999999993
20
-30.000000000000004
30
0
40
3.4000000000000008
210
0
220
0
230
1
0
LINE
5
219
100
AcDbEntity
8
0
100
AcDbLine
10
14.999999999999993
20
-14.699999999999996
30
0
11
15
21
-4.0000000000000053
31
0
0
LINE
5
220
100
AcDbEntity
8
0
100
AcDbLine
10
15.300000000000004
20
-15.000000000000007
30
0
11
25.999999999999996
21
-15.000000000000004
31
0
0
LINE
5
221
100
AcDbEntity
8
0
100
AcDbLine
10
14.999999999999991
20
-45
30
0
11
-14.999999999999993
21
-45
31
0
0
LINE
5
222
100
AcDbEntity
8
0
100
AcDbLine
10
-14.999999999999993
20
-45
30
0
11
-15
21
-15
31
0
0
ENDSEC
0
SECTION
2
OBJECTS
0
DICTIONARY
5
C
100
AcDbDictionary
3
ACAD_GROUP
350
D
3
ACAD_MLINESTYLE
350
17
0
DICTIONARY
5
D
100
AcDbDictionary
0
DICTIONARY
5
1A
330
C
100
AcDbDictionary
0
DICTIONARY
5
17
100
AcDbDictionary
0
ENDSEC
0
EOF
