0
SECTION
2
HEADER
9
$INSUNITS
70
4
9
$ACADVER
1
AC1014
9
$HANDSEED
5
FFFF
0
ENDSEC
0
SECTION
2
TABLES
0
TABLE
2
VPORT
5
8
100
AcDbSymbolTable
0
ENDTAB
0
TABLE
2
LTYPE
5
5
100
AcDbSymbolTable
0
LTYPE
5
14
100
AcDbSymbolTableRecord
100
AcDbLinetypeTableRecord
2
BYBLOCK
70
0
0
LTYPE
5
15
100
AcDbSymbolTableRecord
100
AcDbLinetypeTableRecord
2
BYLAYER
70
0
0
ENDTAB
0
TABLE
2
LAYER
5
2
100
AcDbSymbolTable
70
2
0
LAYER
5
50
100
AcDbSymbolTableRecord
100
AcDbLayerTableRecord
2
0
70
0
6
CONTINUOUS
0
ENDTAB
0
TABLE
2
STYLE
5
3
100
AcDbSymbolTable
70
1
0
STYLE
5
11
100
AcDbSymbolTableRecord
100
AcDbTextStyleTableRecord
2
STANDARD
70
0
0
ENDTAB
0
TABLE
2
VIEW
5
6
100
AcDbSymbolTable
70
0
0
ENDTAB
0
TABLE
2
UCS
5
7
100
AcDbSymbolTable
70
0
0
ENDTAB
0
TABLE
2
APPID
5
9
100
AcDbSymbolTable
70
2
0
APPID
5
12
100
AcDbSymbolTableRecord
100
AcDbRegAppTableRecord
2
ACAD
70
0
0
ENDTAB
0
TABLE
2
DIMSTYLE
5
A
100
AcDbSymbolTable
70
1
0
ENDTAB
0
TABLE
2
BLOCK_RECORD
5
1
100
AcDbSymbolTable
70
1
0
BLOCK_RECORD
5
1F
100
AcDbSymbolTableRecord
100
AcDbBlockTableRecord
2
*MODEL_SPACE
0
BLOCK_RECORD
5
1B
100
AcDbSymbolTableRecord
100
AcDbBlockTableRecord
2
*PAPER_SPACE
0
ENDTAB
0
ENDSEC
0
SECTION
2
BLOCKS
0
BLOCK
5
20
100
AcDbEntity
100
AcDbBlockBegin
2
*MODEL_SPACE
0
ENDBLK
5
21
100
AcDbEntity
100
AcDbBlockEnd
0
BLOCK
5
1C
100
AcDbEntity
100
AcDbBlockBegin
2
*PAPER_SPACE
0
ENDBLK
5
1D
100
AcDbEntity
100
AcDbBlockEnd
0
ENDSEC
0
SECTION
2
ENTITIES
0
LWPOLYLINE
5
100
100
AcDbEntity
8
0
100
AcDbPolyline
90
4
70
1
43
0.0
10
-9.9999999999999982
20
10
10
9.9999999999999982
20
10
10
9.9999999999999982
20
-10
10
-9.9999999999999982
20
-10
0
LINE
5
101
100
AcDbEntity
8
0
100
AcDbLine
10
-9.9999999999999982
20
10
30
0
11
9.9999999999999982
21
-10
31
0
0
LINE
5
102
100
AcDbEntity
8
0
100
AcDbLine
10
9.9999999999999982
20
10
30
0
11
-9.9999999999999982
21
-10
31
0
0
CIRCLE
5
103
100
AcDbEntity
8
0
100
AcDbCircle
10
0
20
0
30
0
40
2.1000000000000001
210
0
220
0
230
1
0
LINE
5
104
100
AcDbEntity
8
0
100
AcDbLine
10
0
20
10
30
0
11
0
21
-10
31
0
0
LINE
5
105
100
AcDbEntity
8
0
100
AcDbLine
10
-9.9999999999999982
20
0
30
0
11
9.9999999999999982
21
0
31
0
0
LINE
5
106
100
AcDbEntity
8
0
100
AcDbLine
10
0
20
3.6999999999999988
30
0
11
0.51961524227065958
21
3.9999999999999969
31
0
0
LINE
5
107
100
AcDbEntity
8
0
100
AcDbLine
10
0.51961524227065958
20
3.9999999999999969
30
0
11
2.9393398282201795
21
3.9999999999999987
31
0
0
LINE
5
108
100
AcDbEntity
8
0
100
AcDbLine
10
2.9393398282201795
20
3.9999999999999987
30
0
11
6.0000000000000044
21
7.0606601717798236
31
0
0
LINE
5
109
100
AcDbEntity
8
0
100
AcDbLine
10
6.0000000000000044
20
7.0606601717798236
30
0
11
6.0000000000000009
21
8.0000000000000036
31
0
0
LINE
5
110
100
AcDbEntity
8
0
100
AcDbLine
10
6.0000000000000009
20
8.0000000000000036
30
0
11
3.0000000000000004
21
7.9999999999999991
31
0
0
LINE
5
111
100
AcDbEntity
8
0
100
AcDbLine
10
3.0000000000000004
20
7.9999999999999991
30
0
11
3
21
10
31
0
0
LINE
5
112
100
AcDbEntity
8
0
100
AcDbLine
10
3
20
10
30
0
11
8.9999999999996501
21
9.9999999999975824
31
0
0
LINE
5
113
100
AcDbEntity
8
0
100
AcDbLine
10
7.0606601717798227
20
6.0000000000000053
30
0
11
8
21
6.0000000000000036
31
0
0
LINE
5
114
100
AcDbEntity
8
0
100
AcDbLine
10
4.0000000000001448
20
0.51961524226953404
30
0
11
3.9999999999999969
21
2.9393398282201821
31
0
0
LINE
5
115
100
AcDbEntity
8
0
100
AcDbLine
10
8
20
6.0000000000000036
30
0
11
7.9999999999999982
21
3.0000000000000018
31
0
0
LINE
5
116
100
AcDbEntity
8
0
100
AcDbLine
10
7.9999999999999982
20
3.0000000000000018
30
0
11
9.9999999999999982
21
3.0000000000000027
31
0
0
LINE
5
117
100
AcDbEntity
8
0
100
AcDbLine
10
3.6999999999999993
20
-1.0432963473160167e-12
30
0
11
4.0000000000001448
21
0.51961524226953404
31
0
0
LINE
5
118
100
AcDbEntity
8
0
100
AcDbLine
10
3.9999999999999969
20
2.9393398282201821
30
0
11
7.0606601717798227
21
6.0000000000000053
31
0
0
LINE
5
119
100
AcDbEntity
8
0
100
AcDbLine
10
9.9999999999999982
20
3.0000000000000027
30
0
11
9.9999999999999982
21
9.0000000000025189
31
0
0
ARC
5
120
100
AcDbEntity
8
0
100
AcDbCircle
10
8.9999999999996501
20
9.0000000000025437
30
0
40
1.0000000000003473
210
-0
220
0
230
1
100
AcDbArc
50
0
51
90
0
LINE
5
121
100
AcDbEntity
8
0
100
AcDbLine
10
-8
20
6.0000000000000036
30
0
11
-7.9999999999999982
21
3.0000000000000018
31
0
0
LINE
5
122
100
AcDbEntity
8
0
100
AcDbLine
10
-7.0606601717798227
20
6.0000000000000053
30
0
11
-8
21
6.0000000000000036
31
0
0
LINE
5
123
100
AcDbEntity
8
0
100
AcDbLine
10
-9.9999999999999982
20
3.0000000000000027
30
0
11
-9.9999999999999982
21
9.0000000000025189
31
0
0
LINE
5
124
100
AcDbEntity
8
0
100
AcDbLine
10
-4.0000000000001448
20
0.51961524226953348
30
0
11
-3.9999999999999969
21
2.9393398282201821
31
0
0
LINE
5
125
100
AcDbEntity
8
0
100
AcDbLine
10
-3.6999999999999993
20
-1.0437494666317011e-12
30
0
11
-4.0000000000001448
21
0.51961524226953348
31
0
0
LINE
5
126
100
AcDbEntity
8
0
100
AcDbLine
10
-3
20
10
30
0
11
-8.9999999999996501
21
9.9999999999975824
31
0
0
LINE
5
127
100
AcDbEntity
8
0
100
AcDbLine
10
-6.0000000000000009
20
8.0000000000000036
30
0
11
-3.0000000000000004
21
7.9999999999999991
31
0
0
ARC
5
128
100
AcDbEntity
8
0
100
AcDbCircle
10
-8.9999999999996501
20
9.0000000000025437
30
0
40
0.99999999999503819
210
-0
220
0
230
1
100
AcDbArc
50
90
51
180
0
LINE
5
129
100
AcDbEntity
8
0
100
AcDbLine
10
-2.9393398282201795
20
3.9999999999999991
30
0
11
-6.0000000000000044
21
7.0606601717798236
31
0
0
LINE
5
130
100
AcDbEntity
8
0
100
AcDbLine
10
0
20
3.6999999999999975
30
0
11
-0.51961524227066269
21
3.9999999999999973
31
0
0
LINE
5
131
100
AcDbEntity
8
0
100
AcDbLine
10
-0.51961524227066269
20
3.9999999999999973
30
0
11
-2.9393398282201795
21
3.9999999999999991
31
0
0
LINE
5
132
100
AcDbEntity
8
0
100
AcDbLine
10
-6.0000000000000044
20
7.0606601717798236
30
0
11
-6.0000000000000009
21
8.0000000000000036
31
0
0
LINE
5
133
100
AcDbEntity
8
0
100
AcDbLine
10
-3.9999999999999969
20
2.9393398282201821
30
0
11
-7.0606601717798227
21
6.0000000000000053
31
0
0
LINE
5
134
100
AcDbEntity
8
0
100
AcDbLine
10
-7.9999999999999982
20
3.0000000000000018
30
0
11
-9.9999999999999982
21
3.0000000000000027
31
0
0
LINE
5
135
100
AcDbEntity
8
0
100
AcDbLine
10
-3.0000000000000004
20
7.9999999999999991
30
0
11
-3
21
10
31
0
0
LINE
5
136
100
AcDbEntity
8
0
100
AcDbLine
10
-9.9999999999999982
20
-3.0000000000000027
30
0
11
-9.9999999999999982
21
-9.0000000000025189
31
0
0
LINE
5
137
100
AcDbEntity
8
0
100
AcDbLine
10
3.0000000000000004
20
-7.9999999999999991
30
0
11
3.0000000000000004
21
-10
31
0
0
LINE
5
138
100
AcDbEntity
8
0
100
AcDbLine
10
6.0000000000000009
20
-8.0000000000000036
30
0
11
3.0000000000000004
21
-7.9999999999999991
31
0
0
LINE
5
139
100
AcDbEntity
8
0
100
AcDbLine
10
-0.51961524227066236
20
-3.9999999999999973
30
0
11
-2.9393398282201799
21
-3.9999999999999991
31
0
0
LINE
5
140
100
AcDbEntity
8
0
100
AcDbLine
10
-8
20
-6.0000000000000036
30
0
11
-7.9999999999999982
21
-3.0000000000000018
31
0
0
LINE
5
141
100
AcDbEntity
8
0
100
AcDbLine
10
2.9393398282201799
20
-3.9999999999999987
30
0
11
6.0000000000000036
21
-7.0606601717798236
31
0
0
ARC
5
142
100
AcDbEntity
8
0
100
AcDbCircle
10
-8.9999999999996501
20
-9.0000000000025437
30
0
40
1.0000000000003473
210
0
220
0
230
1
100
AcDbArc
50
180
51
270
0
LINE
5
143
100
AcDbEntity
8
0
100
AcDbLine
10
4.0000000000001439
20
-0.51961524226953404
30
0
11
3.9999999999999969
21
-2.9393398282201821
31
0
0
LINE
5
144
100
AcDbEntity
8
0
100
AcDbLine
10
-6.0000000000000009
20
-8.0000000000000036
30
0
11
-3.0000000000000004
21
-7.9999999999999991
31
0
0
LINE
5
145
100
AcDbEntity
8
0
100
AcDbLine
10
-4.0000000000001448
20
-0.51961524226953348
30
0
11
-3.9999999999999969
21
-2.9393398282201821
31
0
0
LINE
5
146
100
AcDbEntity
8
0
100
AcDbLine
10
8
20
-6.0000000000000036
30
0
11
7.9999999999999982
21
-3.0000000000000018
31
0
0
LINE
5
147
100
AcDbEntity
8
0
100
AcDbLine
10
7.9999999999999982
20
-3.0000000000000018
30
0
11
9.9999999999999982
21
-3.0000000000000027
31
0
0
ARC
5
148
100
AcDbEntity
8
0
100
AcDbCircle
10
8.9999999999996501
20
-9.0000000000025437
30
0
40
0.99999999999503819
210
-0
220
0
230
1
100
AcDbArc
50
-90
51
0
0
LINE
5
149
100
AcDbEntity
8
0
100
AcDbLine
10
-3.0000000000000004
20
-7.9999999999999991
30
0
11
-3.0000000000000004
21
-10
31
0
0
LINE
5
150
100
AcDbEntity
8
0
100
AcDbLine
10
0.51961524227065903
20
-3.9999999999999969
30
0
11
2.9393398282201799
21
-3.9999999999999987
31
0
0
LINE
5
151
100
AcDbEntity
8
0
100
AcDbLine
10
-3.0000000000000004
20
-10
30
0
11
-8.9999999999996501
21
-9.9999999999975824
31
0
0
LINE
5
152
100
AcDbEntity
8
0
100
AcDbLine
10
3.9999999999999969
20
-2.9393398282201821
30
0
11
7.0606601717798227
21
-6.0000000000000053
31
0
0
LINE
5
153
100
AcDbEntity
8
0
100
AcDbLine
10
-7.0606601717798227
20
-6.0000000000000053
30
0
11
-8
21
-6.0000000000000036
31
0
0
LINE
5
154
100
AcDbEntity
8
0
100
AcDbLine
10
7.0606601717798227
20
-6.0000000000000053
30
0
11
8
21
-6.0000000000000036
31
0
0
LINE
5
155
100
AcDbEntity
8
0
100
AcDbLine
10
-6.0000000000000044
20
-7.0606601717798236
30
0
11
-6.0000000000000009
21
-8.0000000000000036
31
0
0
LINE
5
156
100
AcDbEntity
8
0
100
AcDbLine
10
-3.6999999999999988
20
1.0437494666317011e-12
30
0
11
-4.0000000000001448
21
-0.51961524226953348
31
0
0
LINE
5
157
100
AcDbEntity
8
0
100
AcDbLine
10
-2.9393398282201799
20
-3.9999999999999991
30
0
11
-6.0000000000000044
21
-7.0606601717798236
31
0
0
LINE
5
158
100
AcDbEntity
8
0
100
AcDbLine
10
9.9999999999999982
20
-3.0000000000000027
30
0
11
9.9999999999999982
21
-9.0000000000025189
31
0
0
LINE
5
159
100
AcDbEntity
8
0
100
AcDbLine
10
-7.9999999999999982
20
-3.0000000000000018
30
0
11
-9.9999999999999982
21
-3.0000000000000027
31
0
0
LINE
5
160
100
AcDbEntity
8
0
100
AcDbLine
10
-3.9999999999999969
20
-2.9393398282201821
30
0
11
-7.0606601717798227
21
-6.0000000000000053
31
0
0
LINE
5
161
100
AcDbEntity
8
0
100
AcDbLine
10
0
20
-3.6999999999999975
30
0
11
-0.51961524227066236
21
-3.9999999999999973
31
0
0
LINE
5
162
100
AcDbEntity
8
0
100
AcDbLine
10
3.6999999999999988
20
1.0432963473160167e-12
30
0
11
4.0000000000001439
21
-0.51961524226953404
31
0
0
LINE
5
163
100
AcDbEntity
8
0
100
AcDbLine
10
6.0000000000000036
20
-7.0606601717798236
30
0
11
6.0000000000000009
21
-8.0000000000000036
31
0
0
LINE
5
164
100
AcDbEntity
8
0
100
AcDbLine
10
3.0000000000000004
20
-10
30
0
11
8.9999999999996501
21
-9.9999999999975824
31
0
0
LINE
5
165
100
AcDbEntity
8
0
100
AcDbLine
10
0
20
-3.6999999999999988
30
0
11
0.51961524227065903
21
-3.9999999999999969
31
0
0
ENDSEC
0
SECTION
2
OBJECTS
0
DICTIONARY
5
C
100
AcDbDictionary
3
ACAD_GROUP
350
D
3
ACAD_MLINESTYLE
350
17
0
DICTIONARY
5
D
100
AcDbDictionary
0
DICTIONARY
5
1A
330
C
100
AcDbDictionary
0
DICTIONARY
5
17
100
AcDbDictionary
0
ENDSEC
0
EOF
