0
SECTION
2
HEADER
9
$INSUNITS
70
4
9
$ACADVER
1
AC1014
9
$HANDSEED
5
FFFF
0
ENDSEC
0
SECTION
2
TABLES
0
TABLE
2
VPORT
5
8
100
AcDbSymbolTable
0
ENDTAB
0
TABLE
2
LTYPE
5
5
100
AcDbSymbolTable
0
LTYPE
5
14
100
AcDbSymbolTableRecord
100
AcDbLinetypeTableRecord
2
BYBLOCK
70
0
0
LTYPE
5
15
100
AcDbSymbolTableRecord
100
AcDbLinetypeTableRecord
2
BYLAYER
70
0
0
ENDTAB
0
TABLE
2
LAYER
5
2
100
AcDbSymbolTable
70
2
0
LAYER
5
50
100
AcDbSymbolTableRecord
100
AcDbLayerTableRecord
2
0
70
0
6
CONTINUOUS
0
ENDTAB
0
TABLE
2
STYLE
5
3
100
AcDbSymbolTable
70
1
0
STYLE
5
11
100
AcDbSymbolTableRecord
100
AcDbTextStyleTableRecord
2
STANDARD
70
0
0
ENDTAB
0
TABLE
2
VIEW
5
6
100
AcDbSymbolTable
70
0
0
ENDTAB
0
TABLE
2
UCS
5
7
100
AcDbSymbolTable
70
0
0
ENDTAB
0
TABLE
2
APPID
5
9
100
AcDbSymbolTable
70
2
0
APPID
5
12
100
AcDbSymbolTableRecord
100
AcDbRegAppTableRecord
2
ACAD
70
0
0
ENDTAB
0
TABLE
2
DIMSTYLE
5
A
100
AcDbSymbolTable
70
1
0
ENDTAB
0
TABLE
2
BLOCK_RECORD
5
1
100
AcDbSymbolTable
70
1
0
BLOCK_RECORD
5
1F
100
AcDbSymbolTableRecord
100
AcDbBlockTableRecord
2
*MODEL_SPACE
0
BLOCK_RECORD
5
1B
100
AcDbSymbolTableRecord
100
AcDbBlockTableRecord
2
*PAPER_SPACE
0
ENDTAB
0
ENDSEC
0
SECTION
2
BLOCKS
0
BLOCK
5
20
100
AcDbEntity
100
AcDbBlockBegin
2
*MODEL_SPACE
0
ENDBLK
5
21
100
AcDbEntity
100
AcDbBlockEnd
0
BLOCK
5
1C
100
AcDbEntity
100
AcDbBlockBegin
2
*PAPER_SPACE
0
ENDBLK
5
1D
100
AcDbEntity
100
AcDbBlockEnd
0
ENDSEC
0
SECTION
2
ENTITIES
0
LINE
5
100
100
AcDbEntity
8
0
100
AcDbLine
10
0
20
0
30
0
11
0
21
18.866263382657905
31
0
0
CIRCLE
5
101
100
AcDbEntity
8
0
100
AcDbCircle
10
-10
20
0
30
0
40
2.1000000000000005
210
0
220
0
230
1
0
LINE
5
102
100
AcDbEntity
8
0
100
AcDbLine
10
-10
20
0
30
0
11
0
21
0
31
0
0
LWPOLYLINE
5
103
100
AcDbEntity
8
0
100
AcDbPolyline
90
4
70
1
43
0.0
10
-20
20
9.9999999999999982
10
-3.1752912428974555e-16
20
9.9999999999999982
10
9.0711767485583888e-16
20
-10.000000000000002
10
-20
20
-10
0
LINE
5
104
100
AcDbEntity
8
0
100
AcDbLine
10
-20
20
9.9999999999999982
30
0
11
9.0711767485583888e-16
21
-10.000000000000002
31
0
0
LINE
5
105
100
AcDbEntity
8
0
100
AcDbLine
10
-3.1752912428974555e-16
20
9.9999999999999982
30
0
11
-20
21
-10
31
0
0
LINE
5
106
100
AcDbEntity
8
0
100
AcDbLine
10
-10
20
0
30
0
11
-10
21
9.9999999999999982
31
0
0
LINE
5
107
100
AcDbEntity
8
0
100
AcDbLine
10
-10.000000000000004
20
3.7000000000000055
30
0
11
-10.519615242270664
21
4.0000000000000044
31
0
0
LINE
5
108
100
AcDbEntity
8
0
100
AcDbLine
10
-10.519615242270664
20
4.0000000000000044
30
0
11
-12.939339828220177
21
3.9999999999999964
31
0
0
LINE
5
109
100
AcDbEntity
8
0
100
AcDbLine
10
-12.939339828220177
20
3.9999999999999964
30
0
11
-16
21
7.0606601717798236
31
0
0
LINE
5
110
100
AcDbEntity
8
0
100
AcDbLine
10
-16
20
7.0606601717798236
30
0
11
-16
21
7.9999999999999982
31
0
0
LINE
5
111
100
AcDbEntity
8
0
100
AcDbLine
10
-16
20
7.9999999999999982
30
0
11
-13
21
7.9999999999999982
31
0
0
LINE
5
112
100
AcDbEntity
8
0
100
AcDbLine
10
-13
20
7.9999999999999982
30
0
11
-13
21
9.9999999999999982
31
0
0
LINE
5
113
100
AcDbEntity
8
0
100
AcDbLine
10
-13
20
9.9999999999999982
30
0
11
-19.5
21
9.9999999999999982
31
0
0
CIRCLE
5
114
100
AcDbEntity
8
0
100
AcDbCircle
10
-19.5
20
9.4999999999999982
30
0
40
0.50000000000000056
210
0
220
0
230
1
0
ARC
5
115
100
AcDbEntity
8
0
100
AcDbCircle
10
-19.5
20
9.4999999999999947
30
0
40
0.50000000000000377
210
0
220
-0
230
1
100
AcDbArc
50
90
51
134.99999999999986
0
LINE
5
116
100
AcDbEntity
8
0
100
AcDbLine
10
-14
20
0.51961524227066458
30
0
11
-13.999999999999996
21
2.9393398282201764
31
0
0
LINE
5
117
100
AcDbEntity
8
0
100
AcDbLine
10
-13.700000000000001
20
4.3212348512038197e-16
30
0
11
-14
21
0.51961524227066458
31
0
0
LINE
5
118
100
AcDbEntity
8
0
100
AcDbLine
10
-13.999999999999996
20
2.9393398282201764
30
0
11
-17.060660171779823
21
6
31
0
0
LINE
5
119
100
AcDbEntity
8
0
100
AcDbLine
10
-17.060660171779823
20
6
30
0
11
-18
21
6
31
0
0
LINE
5
120
100
AcDbEntity
8
0
100
AcDbLine
10
-18
20
6
30
0
11
-18
21
2.9999999999999982
31
0
0
LINE
5
121
100
AcDbEntity
8
0
100
AcDbLine
10
-18
20
2.9999999999999982
30
0
11
-20
21
2.9999999999999982
31
0
0
LINE
5
122
100
AcDbEntity
8
0
100
AcDbLine
10
-20
20
2.9999999999999982
30
0
11
-20
21
9.5
31
0
0
ARC
5
123
100
AcDbEntity
8
0
100
AcDbCircle
10
-19.499999999999996
20
9.5
30
0
40
0.50000000000000366
210
0
220
0
230
1
100
AcDbArc
50
135.0000000000006
51
180
0
LINE
5
124
100
AcDbEntity
8
0
100
AcDbLine
10
-10
20
-3.6999999999999957
30
0
11
-10.519615242270664
21
-3.9999999999999951
31
0
0
LINE
5
125
100
AcDbEntity
8
0
100
AcDbLine
10
-10.519615242270664
20
-3.9999999999999951
30
0
11
-12.939339828220177
21
-3.9999999999999964
31
0
0
LINE
5
126
100
AcDbEntity
8
0
100
AcDbLine
10
-12.939339828220177
20
-3.9999999999999964
30
0
11
-16
21
-7.0606601717798236
31
0
0
LINE
5
127
100
AcDbEntity
8
0
100
AcDbLine
10
-16
20
-7.0606601717798236
30
0
11
-16
21
-7.9999999999999982
31
0
0
LINE
5
128
100
AcDbEntity
8
0
100
AcDbLine
10
-16
20
-7.9999999999999982
30
0
11
-13
21
-7.9999999999999982
31
0
0
LINE
5
129
100
AcDbEntity
8
0
100
AcDbLine
10
-13
20
-7.9999999999999982
30
0
11
-13
21
-9.9999999999999982
31
0
0
LINE
5
130
100
AcDbEntity
8
0
100
AcDbLine
10
-13.999999999999996
20
-2.9393398282201764
30
0
11
-17.060660171779823
21
-6
31
0
0
LINE
5
131
100
AcDbEntity
8
0
100
AcDbLine
10
-14
20
-0.51961524227065614
30
0
11
-13.999999999999996
21
-2.9393398282201764
31
0
0
LINE
5
132
100
AcDbEntity
8
0
100
AcDbLine
10
-13.700000000000001
20
7.9965413961963495e-15
30
0
11
-14
21
-0.51961524227065614
31
0
0
LINE
5
133
100
AcDbEntity
8
0
100
AcDbLine
10
-18
20
-6
30
0
11
-18
21
-2.9999999999999982
31
0
0
LINE
5
134
100
AcDbEntity
8
0
100
AcDbLine
10
-17.060660171779823
20
-6
30
0
11
-18
21
-6
31
0
0
LINE
5
135
100
AcDbEntity
8
0
100
AcDbLine
10
-18
20
-2.9999999999999982
30
0
11
-20
21
-2.9999999999999982
31
0
0
LINE
5
136
100
AcDbEntity
8
0
100
AcDbLine
10
-20
20
-2.9999999999999982
30
0
11
-20
21
-9.5
31
0
0
LINE
5
137
100
AcDbEntity
8
0
100
AcDbLine
10
-13
20
-9.9999999999999982
30
0
11
-19.5
21
-9.9999999999999982
31
0
0
ARC
5
138
100
AcDbEntity
8
0
100
AcDbCircle
10
-19.5
20
-9.4999999999999947
30
0
40
0.50000000000000289
210
0
220
0
230
1
100
AcDbArc
50
225.00000000000014
51
270
0
ARC
5
139
100
AcDbEntity
8
0
100
AcDbCircle
10
-19.499999999999996
20
-9.5
30
0
40
0.50000000000000488
210
0
220
0
230
1
100
AcDbArc
50
180
51
224.99999999999943
0
LINE
5
140
100
AcDbEntity
8
0
100
AcDbLine
10
-10
20
3.7000000000000046
30
0
11
-9.4803847577293361
21
4.0000000000000044
31
0
0
LINE
5
141
100
AcDbEntity
8
0
100
AcDbLine
10
-9.4803847577293361
20
4.0000000000000044
30
0
11
-7.0606601717798227
21
3.9999999999999964
31
0
0
LINE
5
142
100
AcDbEntity
8
0
100
AcDbLine
10
-7.0606601717798227
20
3.9999999999999964
30
0
11
-3.9999999999999991
21
7.0606601717798236
31
0
0
LINE
5
143
100
AcDbEntity
8
0
100
AcDbLine
10
-3.9999999999999991
20
7.0606601717798236
30
0
11
-3.9999999999999991
21
7.9999999999999982
31
0
0
LINE
5
144
100
AcDbEntity
8
0
100
AcDbLine
10
-3.9999999999999991
20
7.9999999999999982
30
0
11
-7
21
7.9999999999999982
31
0
0
LINE
5
145
100
AcDbEntity
8
0
100
AcDbLine
10
-7
20
7.9999999999999982
30
0
11
-7
21
9.9999999999999982
31
0
0
LINE
5
146
100
AcDbEntity
8
0
100
AcDbLine
10
-7
20
9.9999999999999982
30
0
11
-0.49999999999999822
21
9.9999999999999982
31
0
0
LINE
5
147
100
AcDbEntity
8
0
100
AcDbLine
10
-10
20
-3.6999999999999957
30
0
11
-9.4803847577293361
21
-3.9999999999999951
31
0
0
LINE
5
148
100
AcDbEntity
8
0
100
AcDbLine
10
-7.0606601717798227
20
-3.9999999999999964
30
0
11
-3.9999999999999991
21
-7.0606601717798236
31
0
0
LINE
5
149
100
AcDbEntity
8
0
100
AcDbLine
10
-3.9999999999999991
20
-7.0606601717798236
30
0
11
-3.9999999999999991
21
-7.9999999999999982
31
0
0
LINE
5
150
100
AcDbEntity
8
0
100
AcDbLine
10
-3.9999999999999991
20
-7.9999999999999982
30
0
11
-7
21
-7.9999999999999982
31
0
0
LINE
5
151
100
AcDbEntity
8
0
100
AcDbLine
10
-7
20
-7.9999999999999982
30
0
11
-7
21
-9.9999999999999982
31
0
0
LINE
5
152
100
AcDbEntity
8
0
100
AcDbLine
10
-7
20
-9.9999999999999982
30
0
11
-0.49999999999999822
21
-9.9999999999999982
31
0
0
LINE
5
153
100
AcDbEntity
8
0
100
AcDbLine
10
-9.4803847577293361
20
-3.9999999999999951
30
0
11
-7.0606601717798227
21
-3.9999999999999964
31
0
0
LINE
5
154
100
AcDbEntity
8
0
100
AcDbLine
10
10
20
3.7000000000000046
30
0
11
10.519615242270664
21
4.0000000000000044
31
0
0
LINE
5
155
100
AcDbEntity
8
0
100
AcDbLine
10
10.519615242270664
20
4.0000000000000044
30
0
11
12.939339828220177
21
3.9999999999999964
31
0
0
LINE
5
156
100
AcDbEntity
8
0
100
AcDbLine
10
12.939339828220177
20
3.9999999999999964
30
0
11
16
21
7.0606601717798236
31
0
0
LINE
5
157
100
AcDbEntity
8
0
100
AcDbLine
10
16
20
7.0606601717798236
30
0
11
16
21
7.9999999999999982
31
0
0
LINE
5
158
100
AcDbEntity
8
0
100
AcDbLine
10
13
20
7.9999999999999982
30
0
11
13
21
9.9999999999999982
31
0
0
LINE
5
159
100
AcDbEntity
8
0
100
AcDbLine
10
13
20
9.9999999999999982
30
0
11
19.5
21
9.9999999999999982
31
0
0
ARC
5
160
100
AcDbEntity
8
0
100
AcDbCircle
10
19.5
20
9.4999999999999947
30
0
40
0.50000000000000289
210
0
220
-0
230
1
100
AcDbArc
50
45.000000000000135
51
90
0
LINE
5
161
100
AcDbEntity
8
0
100
AcDbLine
10
16
20
7.9999999999999982
30
0
11
13
21
7.9999999999999982
31
0
0
LINE
5
162
100
AcDbEntity
8
0
100
AcDbLine
10
13.700000000000001
20
4.3212348512038197e-16
30
0
11
14
21
0.51961524227066458
31
0
0
LINE
5
163
100
AcDbEntity
8
0
100
AcDbLine
10
14
20
0.51961524227066458
30
0
11
13.999999999999996
21
2.9393398282201764
31
0
0
LINE
5
164
100
AcDbEntity
8
0
100
AcDbLine
10
17.060660171779823
20
6
30
0
11
18
21
6
31
0
0
LINE
5
165
100
AcDbEntity
8
0
100
AcDbLine
10
18
20
6
30
0
11
18
21
2.9999999999999982
31
0
0
LINE
5
166
100
AcDbEntity
8
0
100
AcDbLine
10
18
20
2.9999999999999982
30
0
11
20
21
2.9999999999999982
31
0
0
LINE
5
167
100
AcDbEntity
8
0
100
AcDbLine
10
20
20
2.9999999999999982
30
0
11
20
21
9.5
31
0
0
ARC
5
168
100
AcDbEntity
8
0
100
AcDbCircle
10
19.499999999999996
20
9.5
30
0
40
0.50000000000000488
210
0
220
0
230
1
100
AcDbArc
50
0
51
44.999999999999424
0
LINE
5
169
100
AcDbEntity
8
0
100
AcDbLine
10
13.999999999999996
20
2.9393398282201764
30
0
11
17.060660171779823
21
6
31
0
0
LINE
5
170
100
AcDbEntity
8
0
100
AcDbLine
10
13.700000000000001
20
7.9965413961963495e-15
30
0
11
14
21
-0.51961524227065614
31
0
0
LINE
5
171
100
AcDbEntity
8
0
100
AcDbLine
10
13.999999999999996
20
-2.9393398282201764
30
0
11
17.060660171779823
21
-6
31
0
0
LINE
5
172
100
AcDbEntity
8
0
100
AcDbLine
10
17.060660171779823
20
-6
30
0
11
18
21
-6
31
0
0
LINE
5
173
100
AcDbEntity
8
0
100
AcDbLine
10
18
20
-6
30
0
11
18
21
-2.9999999999999982
31
0
0
LINE
5
174
100
AcDbEntity
8
0
100
AcDbLine
10
18
20
-2.9999999999999982
30
0
11
20
21
-2.9999999999999982
31
0
0
LINE
5
175
100
AcDbEntity
8
0
100
AcDbLine
10
20
20
-2.9999999999999982
30
0
11
20
21
-9.5
31
0
0
ARC
5
176
100
AcDbEntity
8
0
100
AcDbCircle
10
19.499999999999996
20
-9.5
30
0
40
0.50000000000000366
210
0
220
0
230
1
100
AcDbArc
50
-44.999999999999439
51
0
0
LINE
5
177
100
AcDbEntity
8
0
100
AcDbLine
10
14
20
-0.51961524227065614
30
0
11
13.999999999999996
21
-2.9393398282201764
31
0
0
LINE
5
178
100
AcDbEntity
8
0
100
AcDbLine
10
10
20
-3.6999999999999957
30
0
11
10.519615242270664
21
-3.9999999999999951
31
0
0
LINE
5
179
100
AcDbEntity
8
0
100
AcDbLine
10
12.939339828220177
20
-3.9999999999999964
30
0
11
16
21
-7.0606601717798236
31
0
0
LINE
5
180
100
AcDbEntity
8
0
100
AcDbLine
10
16
20
-7.0606601717798236
30
0
11
16
21
-7.9999999999999982
31
0
0
LINE
5
181
100
AcDbEntity
8
0
100
AcDbLine
10
16
20
-7.9999999999999982
30
0
11
13
21
-7.9999999999999982
31
0
0
LINE
5
182
100
AcDbEntity
8
0
100
AcDbLine
10
13
20
-7.9999999999999982
30
0
11
13
21
-9.9999999999999982
31
0
0
LINE
5
183
100
AcDbEntity
8
0
100
AcDbLine
10
13
20
-9.9999999999999982
30
0
11
19.5
21
-9.9999999999999982
31
0
0
ARC
5
184
100
AcDbEntity
8
0
100
AcDbCircle
10
19.5
20
-9.4999999999999947
30
0
40
0.50000000000000377
210
0
220
0
230
1
100
AcDbArc
50
270
51
314.99999999999983
0
LINE
5
185
100
AcDbEntity
8
0
100
AcDbLine
10
10.519615242270664
20
-3.9999999999999951
30
0
11
12.939339828220177
21
-3.9999999999999964
31
0
0
LINE
5
186
100
AcDbEntity
8
0
100
AcDbLine
10
10
20
-3.6999999999999957
30
0
11
9.4803847577293361
21
-3.9999999999999951
31
0
0
LINE
5
187
100
AcDbEntity
8
0
100
AcDbLine
10
7.0606601717798227
20
-3.9999999999999964
30
0
11
3.9999999999999991
21
-7.0606601717798236
31
0
0
LINE
5
188
100
AcDbEntity
8
0
100
AcDbLine
10
3.9999999999999991
20
-7.0606601717798236
30
0
11
3.9999999999999991
21
-7.9999999999999982
31
0
0
LINE
5
189
100
AcDbEntity
8
0
100
AcDbLine
10
3.9999999999999991
20
-7.9999999999999982
30
0
11
7
21
-7.9999999999999982
31
0
0
LINE
5
190
100
AcDbEntity
8
0
100
AcDbLine
10
7
20
-7.9999999999999982
30
0
11
7
21
-9.9999999999999982
31
0
0
LINE
5
191
100
AcDbEntity
8
0
100
AcDbLine
10
7
20
-9.9999999999999982
30
0
11
0.49999999999999822
21
-9.9999999999999982
31
0
0
LINE
5
192
100
AcDbEntity
8
0
100
AcDbLine
10
9.4803847577293361
20
-3.9999999999999951
30
0
11
7.0606601717798227
21
-3.9999999999999964
31
0
0
LINE
5
193
100
AcDbEntity
8
0
100
AcDbLine
10
10
20
3.7000000000000046
30
0
11
9.4803847577293361
21
4.0000000000000044
31
0
0
LINE
5
194
100
AcDbEntity
8
0
100
AcDbLine
10
7.0606601717798227
20
3.9999999999999964
30
0
11
3.9999999999999991
21
7.0606601717798236
31
0
0
LINE
5
195
100
AcDbEntity
8
0
100
AcDbLine
10
3.9999999999999991
20
7.0606601717798236
30
0
11
3.9999999999999991
21
7.9999999999999982
31
0
0
LINE
5
196
100
AcDbEntity
8
0
100
AcDbLine
10
3.9999999999999991
20
7.9999999999999982
30
0
11
7
21
7.9999999999999982
31
0
0
LINE
5
197
100
AcDbEntity
8
0
100
AcDbLine
10
7
20
7.9999999999999982
30
0
11
7
21
9.9999999999999982
31
0
0
LINE
5
198
100
AcDbEntity
8
0
100
AcDbLine
10
7
20
9.9999999999999982
30
0
11
0.49999999999999822
21
9.9999999999999982
31
0
0
LINE
5
199
100
AcDbEntity
8
0
100
AcDbLine
10
9.4803847577293361
20
4.0000000000000044
30
0
11
7.0606601717798227
21
3.9999999999999964
31
0
0
CIRCLE
5
200
100
AcDbEntity
8
0
100
AcDbCircle
10
10
20
0
30
0
40
2.1000000000000005
210
0
220
0
230
1
0
LINE
5
201
100
AcDbEntity
8
0
100
AcDbLine
10
-0.49999999999999822
20
9.9999999999999982
30
0
11
0.49999999999999822
21
9.9999999999999982
31
0
0
LINE
5
202
100
AcDbEntity
8
0
100
AcDbLine
10
-0.49999999999999822
20
-9.9999999999999982
30
0
11
0.49999999999999822
21
-9.9999999999999982
31
0
0
LINE
5
203
100
AcDbEntity
8
0
100
AcDbLine
10
-6
20
0
30
0
11
-6
21
2.939339828220179
31
0
0
LINE
5
204
100
AcDbEntity
8
0
100
AcDbLine
10
-6
20
2.939339828220179
30
0
11
-2.087867965644036
21
6.8514718625761448
31
0
0
LINE
5
205
100
AcDbEntity
8
0
100
AcDbLine
10
-1.9999999999999996
20
7.0636038969321104
30
0
11
-1.9999999999999996
21
7.6999999999999993
31
0
0
LINE
5
206
100
AcDbEntity
8
0
100
AcDbLine
10
-1.6999999999999995
20
7.9999999999999991
30
0
11
0
21
7.9999999999999991
31
0
0
ARC
5
207
100
AcDbEntity
8
0
100
AcDbCircle
10
-2.2999999999999989
20
7.0636038969321095
30
0
40
0.29999999999999893
210
0
220
0
230
1
100
AcDbArc
50
-45.000000000000256
51
0
0
ARC
5
208
100
AcDbEntity
8
0
100
AcDbCircle
10
-1.6999999999999991
20
7.6999999999999993
30
0
40
0.30000000000000027
210
0
220
0
230
1
100
AcDbArc
50
90.000000000000099
51
180
0
LINE
5
209
100
AcDbEntity
8
0
100
AcDbLine
10
-6
20
0
30
0
11
-6
21
-2.939339828220179
31
0
0
LINE
5
210
100
AcDbEntity
8
0
100
AcDbLine
10
-6
20
-2.939339828220179
30
0
11
-2.087867965644036
21
-6.8514718625761448
31
0
0
ARC
5
211
100
AcDbEntity
8
0
100
AcDbCircle
10
-2.2999999999999989
20
-7.0636038969321095
30
0
40
0.29999999999999916
210
0
220
0
230
1
100
AcDbArc
50
0
51
45.000000000000249
0
LINE
5
212
100
AcDbEntity
8
0
100
AcDbLine
10
-1.9999999999999996
20
-7.0636038969321104
30
0
11
-1.9999999999999996
21
-7.6999999999999993
31
0
0
ARC
5
213
100
AcDbEntity
8
0
100
AcDbCircle
10
-1.6999999999999993
20
-7.6999999999999993
30
0
40
0.30000000000000027
210
0
220
0
230
1
100
AcDbArc
50
180
51
270
0
LINE
5
214
100
AcDbEntity
8
0
100
AcDbLine
10
-1.6999999999999993
20
-7.9999999999999991
30
0
11
0
21
-7.9999999999999991
31
0
0
LINE
5
215
100
AcDbEntity
8
0
100
AcDbLine
10
6
20
0
30
0
11
6
21
2.939339828220179
31
0
0
LINE
5
216
100
AcDbEntity
8
0
100
AcDbLine
10
6
20
2.939339828220179
30
0
11
2.087867965644036
21
6.8514718625761448
31
0
0
ARC
5
217
100
AcDbEntity
8
0
100
AcDbCircle
10
2.2999999999999989
20
7.0636038969321095
30
0
40
0.29999999999999916
210
0
220
0
230
1
100
AcDbArc
50
180
51
225.00000000000023
0
LINE
5
218
100
AcDbEntity
8
0
100
AcDbLine
10
1.9999999999999996
20
7.0636038969321104
30
0
11
1.9999999999999996
21
7.6999999999999993
31
0
0
ARC
5
219
100
AcDbEntity
8
0
100
AcDbCircle
10
1.6999999999999991
20
7.6999999999999993
30
0
40
0.30000000000000054
210
0
220
-0
230
1
100
AcDbArc
50
0
51
89.999999999999929
0
LINE
5
220
100
AcDbEntity
8
0
100
AcDbLine
10
1.6999999999999995
20
7.9999999999999991
30
0
11
0
21
7.9999999999999991
31
0
0
LINE
5
221
100
AcDbEntity
8
0
100
AcDbLine
10
6
20
-2.939339828220179
30
0
11
2.087867965644036
21
-6.8514718625761448
31
0
0
ARC
5
222
100
AcDbEntity
8
0
100
AcDbCircle
10
2.2999999999999989
20
-7.0636038969321095
30
0
40
0.29999999999999893
210
0
220
0
230
1
100
AcDbArc
50
134.99999999999977
51
180
0
LINE
5
223
100
AcDbEntity
8
0
100
AcDbLine
10
1.9999999999999996
20
-7.0636038969321104
30
0
11
1.9999999999999996
21
-7.6999999999999993
31
0
0
ARC
5
224
100
AcDbEntity
8
0
100
AcDbCircle
10
1.6999999999999993
20
-7.6999999999999993
30
0
40
0.30000000000000027
210
0
220
0
230
1
100
AcDbArc
50
-90
51
0
0
LINE
5
225
100
AcDbEntity
8
0
100
AcDbLine
10
1.6999999999999993
20
-7.9999999999999991
30
0
11
0
21
-7.9999999999999991
31
0
0
LINE
5
226
100
AcDbEntity
8
0
100
AcDbLine
10
6
20
0
30
0
11
6
21
-2.939339828220179
31
0
0
ENDSEC
0
SECTION
2
OBJECTS
0
DICTIONARY
5
C
100
AcDbDictionary
3
ACAD_GROUP
350
D
3
ACAD_MLINESTYLE
350
17
0
DICTIONARY
5
D
100
AcDbDictionary
0
DICTIONARY
5
1A
330
C
100
AcDbDictionary
0
DICTIONARY
5
17
100
AcDbDictionary
0
ENDSEC
0
EOF
